<svg xmlns="http://www.w3.org/2000/svg" width="155.592" height="23.349" viewBox="0 0 155.592 23.349" fill="none">
  <path d="M 13.56 1.574 L 13.56 16.822 C 13.56 17.673 12.888 18.395 12.096 18.395 C 11.304 18.395 10.632 17.673 10.632 16.822 L 10.632 10.475 L 2.952 10.475 L 2.952 16.822 C 2.952 17.673 2.28 18.395 1.488 18.395 C 0.648 18.395 0 17.725 0 16.822 L 0 1.574 C 0 0.671 0.648 0 1.488 0 C 2.28 0 2.952 0.671 2.952 1.574 L 2.952 7.508 L 10.632 7.508 L 10.632 1.574 C 10.632 0.671 11.304 0 12.096 0 C 12.888 0 13.56 0.671 13.56 1.574 Z M 15.978 14.783 C 15.978 12.332 17.61 11.017 19.914 11.017 C 20.898 11.017 21.714 11.275 22.362 11.765 L 22.362 11.404 C 22.362 9.623 21.81 8.772 20.346 8.772 C 19.746 8.772 19.17 8.849 18.666 9.03 C 18.402 9.107 18.234 9.133 18.114 9.133 C 17.682 9.133 17.37 8.927 17.178 8.514 C 17.106 8.359 17.082 8.204 17.082 8.024 C 17.082 7.534 17.346 7.147 17.874 6.914 C 18.762 6.502 19.674 6.295 20.634 6.295 C 23.706 6.295 24.954 7.921 24.954 11.12 L 24.954 17.028 C 24.954 17.725 24.426 18.344 23.73 18.344 C 23.034 18.344 22.554 17.776 22.554 16.951 C 21.858 17.879 20.802 18.344 19.362 18.344 C 17.346 18.344 15.978 16.976 15.978 14.783 Z M 22.362 14.783 L 22.362 13.597 C 21.906 13.21 21.258 13.029 20.466 13.029 C 19.482 13.029 18.738 13.545 18.738 14.474 C 18.738 15.325 19.386 15.841 20.274 15.841 C 21.21 15.841 21.906 15.48 22.362 14.783 Z M 29.796 10.346 L 29.796 15.041 C 30.444 15.48 31.188 15.712 32.076 15.712 C 33.924 15.712 35.1 14.267 35.1 12.281 C 35.1 10.397 34.068 9.082 32.268 9.082 C 31.332 9.082 30.492 9.494 29.796 10.346 Z M 27.036 21.904 L 27.036 8.075 C 27.036 7.018 27.588 6.398 28.452 6.398 C 29.22 6.398 29.796 6.94 29.796 7.663 C 30.492 6.863 31.788 6.295 33.132 6.295 C 34.596 6.295 35.796 6.837 36.684 7.946 C 37.572 9.056 38.028 10.475 38.028 12.203 C 38.028 14.009 37.5 15.506 36.444 16.693 C 35.388 17.879 34.02 18.473 32.316 18.473 C 31.236 18.473 30.396 18.292 29.796 17.905 L 29.796 21.904 C 29.796 22.704 29.196 23.349 28.428 23.349 C 27.636 23.349 27.036 22.704 27.036 21.904 Z M 42.438 10.346 L 42.438 15.041 C 43.086 15.48 43.83 15.712 44.718 15.712 C 46.566 15.712 47.742 14.267 47.742 12.281 C 47.742 10.397 46.71 9.082 44.91 9.082 C 43.974 9.082 43.134 9.494 42.438 10.346 Z M 39.678 21.904 L 39.678 8.075 C 39.678 7.018 40.23 6.398 41.094 6.398 C 41.862 6.398 42.438 6.94 42.438 7.663 C 43.134 6.863 44.43 6.295 45.774 6.295 C 47.238 6.295 48.438 6.837 49.326 7.946 C 50.214 9.056 50.67 10.475 50.67 12.203 C 50.67 14.009 50.142 15.506 49.086 16.693 C 48.03 17.879 46.662 18.473 44.958 18.473 C 43.878 18.473 43.038 18.292 42.438 17.905 L 42.438 21.904 C 42.438 22.704 41.838 23.349 41.07 23.349 C 40.278 23.349 39.678 22.704 39.678 21.904 Z M 53.856 7.482 L 56.016 12.926 C 56.112 13.184 56.28 13.751 56.544 14.603 C 56.664 13.855 56.808 13.287 56.928 12.9 L 58.584 7.508 C 58.8 6.76 59.28 6.398 59.976 6.398 C 60.864 6.398 61.416 6.992 61.416 7.817 C 61.416 8.05 61.368 8.333 61.272 8.617 L 57.768 18.189 C 57.024 20.253 56.352 21.62 55.752 22.317 C 55.152 23.014 54.432 23.349 53.592 23.349 C 53.04 23.349 52.56 23.246 52.176 23.065 C 51.672 22.833 51.408 22.394 51.408 21.801 C 51.408 21.104 51.792 20.563 52.536 20.563 C 52.728 20.563 53.136 20.614 53.304 20.614 L 53.448 20.614 C 54 20.588 54.504 19.995 54.936 18.808 L 55.176 18.189 L 51.096 8.72 C 50.976 8.437 50.928 8.204 50.928 7.972 C 50.928 7.121 51.528 6.398 52.56 6.398 C 53.112 6.398 53.592 6.863 53.856 7.482 Z M 70.812 0.877 L 79.5 12.694 L 79.5 1.445 C 79.5 0.645 80.1 0 80.892 0 C 81.66 0 82.26 0.645 82.26 1.445 L 82.26 16.951 C 82.26 17.776 81.708 18.395 80.94 18.395 C 80.34 18.395 79.812 18.086 79.356 17.441 L 70.668 5.676 L 70.668 16.951 C 70.668 17.75 70.068 18.395 69.3 18.395 C 68.508 18.395 67.908 17.75 67.908 16.951 L 67.908 1.445 C 67.908 0.619 68.532 0 69.324 0 C 69.876 0 70.38 0.284 70.812 0.877 Z M 92.382 14.293 L 92.382 7.843 C 92.382 7.043 92.982 6.398 93.774 6.398 C 94.542 6.398 95.142 7.043 95.142 7.843 L 95.142 16.951 C 95.142 17.75 94.542 18.395 93.75 18.395 C 92.958 18.395 92.382 17.776 92.382 16.77 C 91.518 17.905 90.366 18.473 88.926 18.473 C 86.694 18.473 85.134 16.847 85.134 13.674 L 85.134 7.843 C 85.134 7.043 85.734 6.398 86.526 6.398 C 87.294 6.398 87.894 7.043 87.894 7.843 L 87.894 13.055 C 87.894 14.835 88.59 15.712 89.958 15.712 C 90.894 15.712 91.71 15.248 92.382 14.293 Z M 100.224 7.843 C 101.064 6.863 102.192 6.373 103.608 6.373 C 105.216 6.373 106.344 7.121 106.752 8.23 C 107.64 6.992 108.84 6.373 110.4 6.373 C 112.704 6.373 113.856 7.792 113.856 10.604 L 113.856 16.951 C 113.856 17.75 113.256 18.395 112.488 18.395 C 111.696 18.395 111.096 17.75 111.096 16.951 L 111.096 11.378 C 111.096 9.907 110.472 9.159 109.248 9.159 C 108.192 9.159 107.448 9.598 107.016 10.501 C 107.016 10.604 107.04 11.171 107.04 11.352 L 107.04 16.951 C 107.04 17.75 106.44 18.395 105.672 18.395 C 104.88 18.395 104.28 17.75 104.28 16.951 L 104.28 11.171 C 104.28 9.933 103.632 9.159 102.48 9.159 C 101.496 9.159 100.728 9.572 100.224 10.397 L 100.224 16.951 C 100.224 17.75 99.624 18.395 98.856 18.395 C 98.064 18.395 97.464 17.75 97.464 16.951 L 97.464 8.024 C 97.464 7.018 98.016 6.398 98.88 6.398 C 99.648 6.398 100.224 6.992 100.224 7.843 Z M 118.674 1.574 L 118.674 7.301 C 119.466 6.631 120.426 6.295 121.53 6.295 C 123.114 6.295 124.362 6.837 125.298 7.921 C 126.21 9.03 126.666 10.449 126.666 12.203 C 126.666 14.113 126.114 15.635 125.01 16.77 C 123.882 17.905 122.394 18.473 120.498 18.473 C 119.322 18.473 118.194 18.241 117.114 17.802 C 116.322 17.467 115.914 16.847 115.914 15.944 L 115.914 1.574 C 115.914 0.774 116.514 0.129 117.306 0.129 C 118.074 0.129 118.674 0.774 118.674 1.574 Z M 118.674 10.191 L 118.674 15.119 C 119.25 15.506 119.898 15.712 120.642 15.712 C 122.442 15.712 123.714 14.448 123.714 12.41 C 123.714 10.268 122.514 9.082 120.882 9.082 C 119.994 9.082 119.274 9.443 118.674 10.191 Z M 135.708 11.3 L 135.708 11.249 C 135.708 9.804 134.772 8.772 133.236 8.772 C 131.676 8.772 130.716 9.623 130.404 11.3 L 135.708 11.3 Z M 137.388 13.287 L 130.5 13.287 C 130.716 15.016 132.012 15.996 133.74 15.996 C 134.484 15.996 135.156 15.841 135.756 15.557 C 136.02 15.428 136.212 15.377 136.38 15.377 C 136.74 15.377 137.028 15.557 137.244 15.919 C 137.364 16.125 137.412 16.306 137.412 16.486 C 137.412 16.925 137.22 17.26 136.86 17.492 C 135.828 18.137 134.7 18.473 133.452 18.473 C 131.7 18.473 130.308 17.905 129.252 16.796 C 128.172 15.686 127.644 14.216 127.644 12.384 C 127.644 10.655 128.172 9.185 129.204 8.024 C 130.236 6.863 131.628 6.295 133.356 6.295 C 134.772 6.295 135.996 6.785 136.98 7.792 C 137.964 8.798 138.468 10.114 138.468 11.687 L 138.468 12.229 C 138.396 12.926 138.036 13.287 137.388 13.287 Z M 141.534 6.398 C 142.302 6.398 142.878 6.966 142.878 7.688 C 143.526 6.785 144.342 6.321 145.326 6.321 C 146.022 6.321 146.742 6.76 146.742 7.663 C 146.742 8.669 146.166 9.185 145.014 9.185 C 144.942 9.185 144.726 9.159 144.63 9.159 L 144.462 9.159 C 143.766 9.159 143.238 9.572 142.878 10.397 L 142.878 16.951 C 142.878 17.75 142.278 18.395 141.51 18.395 C 140.718 18.395 140.118 17.75 140.118 16.951 L 140.118 8.024 C 140.118 7.018 140.67 6.398 141.534 6.398 Z M 147.024 16.151 C 147.024 15.867 147.096 15.609 147.264 15.428 C 147.504 15.119 147.792 14.964 148.128 14.964 C 148.392 14.964 148.656 15.067 148.92 15.248 C 149.664 15.738 150.48 15.996 151.416 15.996 C 152.256 15.996 152.832 15.609 152.832 14.912 C 152.832 14.216 151.92 13.829 150.792 13.493 C 149.112 13.029 147 12.358 147 9.83 C 147 7.637 148.656 6.295 150.96 6.295 C 152.232 6.295 153.312 6.579 154.248 7.172 C 154.632 7.43 154.824 7.766 154.824 8.179 C 154.824 8.385 154.776 8.591 154.68 8.772 C 154.464 9.159 154.152 9.365 153.72 9.365 C 153.504 9.365 153.288 9.314 153.072 9.211 C 152.448 8.927 151.8 8.772 151.104 8.772 C 150.312 8.772 149.76 9.236 149.76 9.778 C 149.76 10.862 151.848 11.12 153.528 11.765 C 154.68 12.203 155.592 13.235 155.592 14.758 C 155.592 17.028 153.888 18.473 151.224 18.473 C 149.712 18.473 148.464 18.034 147.48 17.157 C 147.168 16.873 147.024 16.538 147.024 16.151 Z" fill="currentColor" fill-rule="evenodd"></path>
</svg>