<svg xmlns="http://www.w3.org/2000/svg" width="32" height="32" viewBox="0 0 32 32" fill="none">
<g transform="translate(0 0) scale(1.00000 1.00000)"><path d="M 16 32 C 24.837 32 32 24.837 32 16 C 32 7.163 24.837 0 16 0 C 7.163 0 0 7.163 0 16 C 0 24.837 7.163 32 16 32 Z" fill="rgb(66,171,233)" fill-rule="evenodd"></path></g>
<g transform="translate(4 13.466) scale(1.00000 1.00000)"><path d="M 0 2.384 L 3.272 4.805 L 0.615 7.318 L 3.092 9.506 L 1.182 11.535 L 3.624 13.5 L 3.516 0 L 0 2.384 Z" fill="rgb(13,16,19)" fill-rule="evenodd"></path></g>
<g transform="translate(7.28 12.927) scale(1.00000 1.00000)"><path d="M 13.682 12.554 L 12.299 18.67 C 11.148 18.933 9.95 19.073 8.72 19.073 C 5.568 19.073 2.63 18.162 0.153 16.589 C 0.08 10.19 0 1.425 0 0.995 C 0 0.338 0.504 0 0.504 0 L 13.682 12.554 Z" fill="rgb(255,87,103)" fill-rule="nonzero"></path></g>
<g transform="translate(12.887 23.109) scale(1.00000 1.00000)"><path d="M 5.736 0 L 8.108 2.228 L 6.693 8.487 C 5.542 8.75 4.344 8.891 3.113 8.891 C 2.048 8.891 1.007 8.785 0 8.586 L 0 0 L 5.736 0 Z" fill="rgb(255,197,0)" fill-rule="nonzero"></path></g>
<g transform="translate(7.519 12.919) scale(1.00000 1.00000)"><path d="M 14.302 12.457 C 16.258 12.526 18.408 12.33 18.569 12.276 C 18.569 12.276 19.06 9.675 19.006 5.249 C 18.952 0.828 14.467 0.355 8.018 0.212 C 5.551 0.158 0 0 0 0 C 0 0 0.696 3.499 2 6.81 C 4.068 12.062 12.725 12.401 14.302 12.457 Z" fill="rgb(255,87,103)" fill-rule="evenodd"></path></g>
<g transform="translate(22.138 12.417) scale(1.00000 1.00000)"><path d="M 2.772 0.07 C 3.723 0.382 4.112 1.653 3.642 2.908 C 3.172 4.164 2.02 4.928 1.07 4.616 C 0.119 4.303 -0.271 3.032 0.199 1.777 C 0.669 0.522 1.821 -0.243 2.772 0.07 Z" fill="rgb(255,87,103)" fill-rule="evenodd"></path></g>
<g transform="translate(23.539 13.601) scale(1.00000 1.00000)"><path d="M 1.269 0.059 C 1.596 0.249 1.639 0.837 1.365 1.373 C 1.091 1.908 0.603 2.188 0.276 1.998 C -0.051 1.809 -0.094 1.221 0.18 0.685 C 0.454 0.15 0.942 -0.13 1.269 0.059 Z" fill="rgb(13,16,19)" fill-rule="evenodd"></path></g>
<g transform="translate(24.498 14.458) scale(1.00000 1.00000)"><path d="M 3.533 0.281 C 4.226 0.834 4.097 2.019 3.244 2.928 C 2.392 3.837 1.139 4.125 0.446 3.572 C -0.247 3.019 -0.118 1.833 0.734 0.925 C 1.586 0.016 2.839 -0.272 3.533 0.281 Z" fill="rgb(255,87,103)" fill-rule="evenodd"></path></g>
<g transform="translate(25.924 15.389) scale(1.00000 1.00000)"><path d="M 1.255 1.212 C 0.878 1.562 0.375 1.65 0.131 1.408 C -0.113 1.165 -0.006 0.684 0.371 0.333 C 0.748 -0.018 1.251 -0.105 1.495 0.137 C 1.739 0.38 1.632 0.861 1.255 1.212 Z" fill="rgb(13,16,19)" fill-rule="evenodd"></path></g>
<g transform="translate(7.784 4.236) scale(1.00000 1.00000)"><path d="M 2.088 0.008 C 2.692 -0.041 3.144 0.133 3.236 0.525 C 3.329 0.916 2.904 1.303 2.541 1.411 C 2.179 1.519 1.284 2.326 1.053 2.521 C 0.823 2.715 0.353 2.687 0.142 2.476 C -0.069 2.265 -0.019 1.844 0.122 1.555 C 0.466 0.845 1.187 0.08 2.088 0.008 Z" fill="rgb(13,16,19)" fill-rule="evenodd"></path></g>
<g transform="translate(15.231 4.236) scale(1.00000 1.00000)"><path d="M 1.137 0.001 C 0.528 -0.019 0.083 0.177 0.008 0.577 C -0.066 0.976 0.378 1.346 0.747 1.438 C 1.116 1.53 2.053 2.302 2.293 2.488 C 2.533 2.673 3.003 2.622 3.205 2.4 C 3.406 2.177 3.336 1.755 3.182 1.47 C 2.804 0.77 2.044 0.032 1.137 0.001 Z" fill="rgb(13,16,19)" fill-rule="evenodd"></path></g>
<g transform="translate(7.081 7.48) scale(1.00000 1.00000)"><path d="M 4.098 0.006 C 6.243 0.122 7.89 1.969 7.775 4.131 C 7.66 6.293 5.828 7.952 3.683 7.836 C 1.537 7.72 -0.109 5.873 0.006 3.711 C 0.12 1.549 1.952 -0.11 4.098 0.006 Z" fill="rgb(111,86,142)" fill-rule="evenodd"></path></g>
<g transform="translate(12.925 7.443) scale(1.00000 1.00000)"><path d="M 4.098 0.006 C 6.244 0.122 7.89 1.969 7.775 4.132 C 7.66 6.295 5.828 7.954 3.683 7.838 C 1.537 7.722 -0.109 5.875 0.006 3.712 C 0.12 1.549 1.952 -0.11 4.098 0.006 Z" fill="rgb(111,86,142)" fill-rule="evenodd"></path></g>
<g transform="translate(8.469 8.88) scale(1.00000 1.00000)"><path d="M 2.634 0.004 C 4.013 0.078 5.071 1.266 4.998 2.656 C 4.924 4.047 3.746 5.113 2.367 5.039 C 0.988 4.964 -0.07 3.777 0.004 2.386 C 0.077 0.996 1.255 -0.071 2.634 0.004 Z" fill="rgb(255,255,255)" fill-rule="evenodd"></path></g>
<g transform="translate(9.789 10.211) scale(1.00000 1.00000)"><path d="M 1.244 0.002 C 1.895 0.037 2.395 0.598 2.36 1.254 C 2.325 1.91 1.769 2.413 1.118 2.378 C 0.467 2.343 -0.033 1.783 0.002 1.126 C 0.037 0.47 0.593 -0.033 1.244 0.002 Z" fill="rgb(13,16,19)" fill-rule="evenodd"></path></g>
<g transform="translate(14.316 8.845) scale(1.00000 1.00000)"><path d="M 2.634 0.004 C 4.013 0.078 5.071 1.266 4.998 2.656 C 4.924 4.047 3.746 5.113 2.367 5.039 C 0.988 4.964 -0.07 3.777 0.004 2.386 C 0.077 0.996 1.255 -0.071 2.634 0.004 Z" fill="rgb(255,255,255)" fill-rule="evenodd"></path></g>
<g transform="translate(15.636 10.176) scale(1.00000 1.00000)"><path d="M 1.244 0.002 C 1.895 0.037 2.395 0.598 2.36 1.254 C 2.325 1.91 1.769 2.413 1.118 2.378 C 0.467 2.343 -0.033 1.783 0.002 1.126 C 0.037 0.47 0.593 -0.033 1.244 0.002 Z" fill="rgb(13,16,19)" fill-rule="evenodd"></path></g>
<g transform="translate(10.346 19.468) scale(1.00000 1.00000)"><path d="M 9.252 5.712 C 6 5.163 4.201 4.436 3.418 4.051 C 2.165 3.435 1.283 2.558 0.797 1.444 C 0.575 0.934 0.456 0.201 0.455 0.194 C 0.435 0.068 0.317 -0.017 0.192 0.003 C 0.068 0.023 -0.017 0.142 0.003 0.268 C 0.008 0.3 0.133 1.065 0.379 1.63 C 0.495 1.896 0.632 2.151 0.788 2.392 L 0.686 4.996 L 3.217 4.466 L 4.118 6.763 L 6.569 5.625 L 7.848 7.779 L 9.57 6.227 C 10.101 6.299 10.545 6.329 10.545 6.329 C 10.545 6.329 10.577 6.194 10.601 6.091 C 10.623 5.994 10.649 5.869 10.649 5.869 C 10.649 5.869 10.016 5.84 9.252 5.712 Z" fill="rgb(255,255,255)" fill-rule="evenodd"></path></g>
</svg>